<?xml version="1.0" encoding="iso-8859-1"?>
<!-- Generator: Adobe Illustrator 19.0.0, SVG Export Plug-In . SVG Version: 6.00 Build 0)  -->
<svg version="1.1" id="Capa_1" xmlns="http://www.w3.org/2000/svg" xmlns:xlink="http://www.w3.org/1999/xlink" x="0px" y="0px"
	 viewBox="0 0 491.52 491.52" style="enable-background:new 0 0 491.52 491.52;" xml:space="preserve">
<circle style="fill:#45B39C;" cx="245.76" cy="245.76" r="245.76"/>
<path style="opacity:0.1;enable-background:new    ;" d="M328.141,110.489c-2.816-3.379-7.066-5.529-11.776-5.529h-141.21
	c-8.448,0-15.309,6.861-15.309,15.309v250.983c0,4.403,1.895,8.397,4.915,11.213l107.6,107.6
	C386.817,477.74,477.71,386.86,490.057,272.413L328.141,110.541V110.489z"/>
<path style="fill:#E1E6E9;" d="M316.361,114.841H175.159c-8.46,0-15.319,6.859-15.319,15.319v241.081
	c0,8.461,6.859,15.319,15.319,15.319h141.202c8.461,0,15.319-6.858,15.319-15.319V130.16
	C331.68,121.699,324.822,114.841,316.361,114.841z"/>
<path style="fill:#EBF0F3;" d="M316.361,104.96H175.159c-8.46,0-15.319,6.859-15.319,15.319V361.36
	c0,8.461,6.859,15.319,15.319,15.319h141.202c8.461,0,15.319-6.858,15.319-15.319V120.279
	C331.68,111.819,324.822,104.96,316.361,104.96z"/>
<path style="fill:#64798A;" d="M175.157,336.097c-0.275,0-0.497-0.188-0.497-0.422V131.142c0-0.233,0.222-0.424,0.497-0.424h141.205
	c0.275,0,0.497,0.19,0.497,0.424v204.533c0,0.233-0.222,0.422-0.497,0.422H175.157z"/>
<path style="fill:#3A556A;" d="M245.76,370.723c-7.531,0-13.658-6.127-13.658-13.661s6.127-13.661,13.658-13.661
	s13.658,6.127,13.658,13.661C259.418,364.596,253.291,370.723,245.76,370.723z M245.76,348.342c-4.805,0-8.718,3.913-8.718,8.72
	c0,4.808,3.913,8.72,8.718,8.72c4.805,0,8.718-3.913,8.718-8.72S250.565,348.342,245.76,348.342z"/>
<path style="fill:#64798A;" d="M267.148,121.268h-42.776c-2.06,0-3.73-1.67-3.73-3.73l0,0c0-2.06,1.67-3.73,3.73-3.73h42.776
	c2.06,0,3.73,1.67,3.73,3.73l0,0C270.879,119.598,269.208,121.268,267.148,121.268z"/>
<circle style="fill:#F6C358;" cx="245.76" cy="186.99" r="42.09"/>
<circle style="fill:#FCD462;" cx="245.76" cy="186.99" r="35.07"/>
<g>
	<path style="fill:#DC8744;" d="M245.76,222.051c12.641,0,23.686-6.711,29.856-16.742c-6.313-9.813-17.32-16.32-29.856-16.32
		s-23.543,6.506-29.856,16.32C222.074,215.34,233.119,222.051,245.76,222.051z"/>
	<circle style="fill:#DC8744;" cx="245.76" cy="169.11" r="11.08"/>
</g>
<g>
	<rect x="191.94" y="239.78" style="fill:#EBF0F3;" width="107.62" height="19.415"/>
	<rect x="191.94" y="267.21" style="fill:#EBF0F3;" width="107.62" height="19.415"/>
</g>
<rect x="217.04" y="297.06" style="fill:#2F4859;" width="57.43" height="19.415"/>
<g>
</g>
<g>
</g>
<g>
</g>
<g>
</g>
<g>
</g>
<g>
</g>
<g>
</g>
<g>
</g>
<g>
</g>
<g>
</g>
<g>
</g>
<g>
</g>
<g>
</g>
<g>
</g>
<g>
</g>
</svg>
