<svg id="Layer_3" height="512" viewBox="0 0 64 64" width="512" xmlns="http://www.w3.org/2000/svg" data-name="Layer 3"><path d="m4 30h56v32h-56z" fill="#ccc"/><path d="m4 30v28h49a4 4 0 0 0 4-4v-24z" fill="#f2f2f2"/><path d="m8 36h16v22h-16z" fill="#bce4f8"/><path d="m8 36v19h10a4 4 0 0 0 4-4v-15z" fill="#e4f5fd"/><rect fill="#fff" height="10" rx="2" width="7" x="10" y="41"/><path d="m28 36h28v22h-28z" fill="#bce4f8"/><path d="m28 36v20h21a4 4 0 0 0 4-4v-16z" fill="#e4f5fd"/><rect fill="#fff" height="14" rx="2" width="16" x="31" y="38"/><path d="m8 20-6 6h60l-6-6z" fill="#3079e6"/><path d="m2 26h60v4h-60z" fill="#2763bb"/><path d="m17 2h30v20h-30z" fill="#bce4f8"/><path d="m17 2v17h24a3 3 0 0 0 3-3v-14z" fill="#e4f5fd"/><rect fill="#fff" height="11" rx="2" width="18" x="20" y="4"/><path d="m7 58h18v4h-18z" fill="#2763bb"/><path d="m12 40h8v4h-8z" fill="#2763bb"/><path d="m30 6a2 2 0 0 0 2 2 2 2 0 0 0 2-2h5v4h-3v8h-8v-8h-3v-4z" fill="#2763bb"/><path d="m40 44a2 2 0 0 0 2 2 2 2 0 0 0 2-2h4v4h-2v5h-8v-5h-2v-4z" fill="#2763bb"/><g fill="#3079e6"><path d="m34 6a2 2 0 0 1 -4 0h-5v4h3v5h4a3 3 0 0 0 3-3v-6z"/><path d="m42 46a2 2 0 0 1 -2-2h-4v4h2v3h4a2 2 0 0 0 2-2v-5a2 2 0 0 1 -2 2z"/><path d="m7 60h15a2 2 0 0 0 2-2h-17z"/><path d="m12 40v3h5a2 2 0 0 0 2-2v-1z"/></g><path d="m62.707 25.293-6-6a1 1 0 0 0 -.707-.293h-8v-17a1 1 0 0 0 -1-1h-30a1 1 0 0 0 -1 1v17h-8a1 1 0 0 0 -.707.293l-6 6a1 1 0 0 0 -.293.707v4a1 1 0 0 0 1 1h1v31a1 1 0 0 0 1 1h56a1 1 0 0 0 1-1v-31h1a1 1 0 0 0 1-1v-4a1 1 0 0 0 -.293-.707zm-14.707-3.293v-1h7.586l4 4h-15.586v-2h3a1 1 0 0 0 1-1zm-6 1v2h-20v-2zm-24-20h28v18h-28zm-9.586 18h7.586v1a1 1 0 0 0 1 1h3v2h-15.586zm14.586 36h-14v-20h14zm-15 2h16v2h-16zm51 2h-33v-3a1 1 0 0 0 -1-1v-21a1 1 0 0 0 -1-1h-16a1 1 0 0 0 -1 1v21a1 1 0 0 0 -1 1v3h-1v-30h54zm-56-32v-2h58v2z"/><path d="m12 45h8a1 1 0 0 0 1-1v-4a1 1 0 0 0 -1-1h-8a1 1 0 0 0 -1 1v4a1 1 0 0 0 1 1zm1-4h6v2h-6z"/><path d="m28 59h28a1 1 0 0 0 1-1v-22a1 1 0 0 0 -1-1h-28a1 1 0 0 0 -1 1v22a1 1 0 0 0 1 1zm1-2v-16h10.586l-2 2h-1.586a1 1 0 0 0 -1 1v4a1 1 0 0 0 1 1h1v4a1 1 0 0 0 1 1h8a1 1 0 0 0 1-1v-4h1a1 1 0 0 0 1-1v-4a1 1 0 0 0 -1-1h-1.586l-2-2h10.586v16zm9-10h-1v-2h2.171a3 3 0 0 0 5.658 0h2.171v2h-1a1 1 0 0 0 -1 1v4h-6v-4a1 1 0 0 0 -1-1zm2.345-3.93 1.655-1.656 1.656 1.656a.992.992 0 0 0 -.656.93 1 1 0 0 1 -2 0 .992.992 0 0 0 -.655-.93zm14.655-6.07v2h-26v-2z"/><path d="m39 5h-5a1 1 0 0 0 -1 1 1 1 0 0 1 -2 0 1 1 0 0 0 -1-1h-5a1 1 0 0 0 -1 1v4a1 1 0 0 0 1 1h2v7a1 1 0 0 0 1 1h8a1 1 0 0 0 1-1v-7h2a1 1 0 0 0 1-1v-4a1 1 0 0 0 -1-1zm-1 4h-2a1 1 0 0 0 -1 1v7h-6v-7a1 1 0 0 0 -1-1h-2v-2h3.171a3 3 0 0 0 5.658 0h3.171z"/></svg>