<svg height="512pt" viewBox="0 0 512 512" width="512pt" xmlns="http://www.w3.org/2000/svg"><path d="m512 256c0 141.386719-114.613281 256-256 256s-256-114.613281-256-256 114.613281-256 256-256 256 114.613281 256 256zm0 0" fill="#09ce67"/><path d="m512 256c0-8.554688-.429688-17.007812-1.246094-25.34375l-100.753906-100.753906-333 226.023437 154.9375 154.9375c7.921875.742188 15.945312 1.136719 24.0625 1.136719 141.386719 0 256-114.613281 256-256zm0 0" fill="#1aad5c"/><path d="m102 129.902344h308v209.664062h-308zm0 0" fill="#414952"/><path d="m255.644531 129.902344h154.355469v209.667968h-154.355469zm0 0" fill="#333940"/><path d="m121.132812 151.015625h269.734376v161.183594h-269.734376zm0 0" fill="#fe6a16"/><path d="m255.644531 151.015625h135.222657v161.183594h-135.222657zm0 0" fill="#f24500"/><path d="m77 312.199219h358v43.726562h-358zm0 0" fill="#636978"/><path d="m255.644531 312.199219h179.355469v43.726562h-179.355469zm0 0" fill="#555a66"/><path d="m331.488281 178.703125c-1.402343 12.195313-11.757812 21.667969-24.328125 21.667969-12.574218 0-22.925781-9.472656-24.328125-21.667969h-40.914062v43.574219h19.3125v61h91.855469v-61h19.3125v-43.574219zm0 0" fill="#ffd400"/><path d="m331.488281 178.703125c-1.394531 12.121094-11.632812 21.539063-24.097656 21.65625v82.917969h45.695313v-61h19.3125v-43.574219zm0 0" fill="#fdba12"/><path d="m138.464844 260.117188 68.664062-68.664063 17.902344 17.902344-68.664062 68.667969zm0 0" fill="#fff"/><path d="m207.132812 191.449219-25.613281 25.617187v35.804688l43.515625-43.515625zm0 0" fill="#e9edf5"/><path d="m171.285156 207.863281c0 9.0625-7.347656 16.410157-16.410156 16.410157s-16.410156-7.347657-16.410156-16.410157 7.347656-16.410156 16.410156-16.410156 16.410156 7.347656 16.410156 16.410156zm0 0" fill="#fff"/><path d="m225.035156 261.609375c0 9.0625-7.347656 16.410156-16.410156 16.410156s-16.410156-7.347656-16.410156-16.410156 7.347656-16.410156 16.410156-16.410156 16.410156 7.347656 16.410156 16.410156zm0 0" fill="#e9edf5"/></svg>