<svg id="Capa_1" enable-background="new 0 0 503.03 503.03" height="512" viewBox="0 0 503.03 503.03" width="512" xmlns="http://www.w3.org/2000/svg"><g><path d="m40.766 78.901h421.498c6.051 0 10.957 4.906 10.957 10.957v282.671c0 6.051-4.906 10.957-10.957 10.957h-421.498c-6.051 0-10.957-4.906-10.957-10.957v-282.672c.001-6.051 4.906-10.956 10.957-10.956z" fill="#2f4859"/><path d="m53.315 102.65h396.462v257.085h-396.462z" fill="#27a2db"/><path d="m0 383.486v5.57c0 19.347 15.666 35.04 35.013 35.074h433.005c19.347-.034 35.013-15.727 35.013-35.074v-5.57z" fill="#3a556a"/><path d="m365.979 201.812-51.539-48.969h-35.686c0 15.044-12.195 27.239-27.239 27.239s-27.239-12.195-27.239-27.239h-35.686l-51.539 48.969 31.156 33.176 20.383-17.935v92.612h125.85v-92.612l20.383 17.935z" fill="#ebf0f3"/></g></svg>