<svg id="Layer_3" height="512" viewBox="0 0 64 64" width="512" xmlns="http://www.w3.org/2000/svg" data-name="Layer 3"><path d="m4 30h56v32h-56z" fill="#ccc"/><path d="m4 30v28h49a4 4 0 0 0 4-4v-24z" fill="#f2f2f2"/><path d="m8 36h16v22h-16z" fill="#bce4f8"/><path d="m8 36v19h10a4 4 0 0 0 4-4v-15z" fill="#e4f5fd"/><rect fill="#fff" height="10" rx="2" width="7" x="10" y="41"/><path d="m28 36h28v22h-28z" fill="#bce4f8"/><path d="m28 36v20h21a4 4 0 0 0 4-4v-16z" fill="#e4f5fd"/><rect fill="#fff" height="14" rx="2" width="16" x="31" y="38"/><path d="m56 39h-28v2h11.919l-2.7 3.375 1.562 1.25 3.219-4.024 3.219 4.024 1.562-1.25-2.7-3.375h11.919z" fill="#ccc"/><path d="m8 20-6 6h60l-6-6z" fill="#3079e6"/><path d="m2 26h60v4h-60z" fill="#2763bb"/><path d="m17 2h30v20h-30z" fill="#bce4f8"/><path d="m17 2v17h24a3 3 0 0 0 3-3v-14z" fill="#e4f5fd"/><rect fill="#fff" height="11" rx="2" width="18" x="20" y="4"/><path d="m20 22h2v4h-2z" fill="#fff"/><path d="m42 22h2v4h-2z" fill="#fff"/><path d="m7 58h18v4h-18z" fill="#2763bb"/><path d="m12 40h8v4h-8z" fill="#2763bb"/><path d="m30 6a2 2 0 0 0 2 2 2 2 0 0 0 2-2h5v4h-3v8h-8v-8h-3v-4z" fill="#2763bb"/><path d="m40 44a2 2 0 0 0 2 2 2 2 0 0 0 2-2h4v4h-2v5h-8v-5h-2v-4z" fill="#2763bb"/><g fill="#3079e6"><path d="m34 6a2 2 0 0 1 -4 0h-5v4h3v5h4a3 3 0 0 0 3-3v-6z"/><path d="m42 46a2 2 0 0 1 -2-2h-4v4h2v3h4a2 2 0 0 0 2-2v-5a2 2 0 0 1 -2 2z"/><path d="m7 60h15a2 2 0 0 0 2-2h-17z"/><path d="m12 40v3h5a2 2 0 0 0 2-2v-1z"/></g></svg>