<svg height="512" viewBox="0 0 512 512" width="512" xmlns="http://www.w3.org/2000/svg"><g id="flat"><rect fill="#cdccc8" height="464" rx="20" width="272" x="120" y="24"/><path d="m120 72h272v368h-272z" fill="#a6deff"/><path d="m330.972 148.8a34 34 0 0 0 -22.907-27.447l-4.065-1.353-32-8h-48l-32 8-4.065 1.355a34 34 0 0 0 -22.907 27.445l-5.028 35.2h32v88h112v-88h32z" fill="#009cf7"/><path d="m376 72h16v368h-16z" fill="#92d1f7"/><path d="m272 472h-32a8 8 0 0 1 0-16h32a8 8 0 0 1 0 16z" fill="#bbbab6"/><path d="m224 112h48a0 0 0 0 1 0 0v16a24 24 0 0 1 -24 24 24 24 0 0 1 -24-24v-16a0 0 0 0 1 0 0z" fill="#007af6"/><path d="m336 288a8 8 0 0 1 -8-8v-52a4 4 0 0 0 -4-4h-20a8 8 0 0 1 -8-8c0-4.418-4.418-8 0-8h28a20.023 20.023 0 0 1 20 20v52a8 8 0 0 1 -8 8z" fill="#bbbab6"/><g fill="#5ebef7"><circle cx="256" cy="408" r="10"/><circle cx="226" cy="408" r="10"/><circle cx="286" cy="408" r="10"/></g><path d="m264 56h-16a8 8 0 0 1 0-16h16a8 8 0 0 1 0 16z" fill="#bbbab6"/><path d="m304 288a8 8 0 0 1 -8-8v-52a4 4 0 0 0 -4-4h-32a4 4 0 0 0 -4 4v52a8 8 0 0 1 -16 0v-52a20.023 20.023 0 0 1 20-20h32a20.023 20.023 0 0 1 20 20v52a8 8 0 0 1 -8 8z" fill="#cdccc8"/><path d="m224 264h96a0 0 0 0 1 0 0v112a0 0 0 0 1 0 0h-76a20 20 0 0 1 -20-20v-92a0 0 0 0 1 0 0z" fill="#f3be5f"/><path d="m320 264h32v96a16 16 0 0 1 -16 16h-16z" fill="#dcac56"/><path d="m192 184v-24l-8 24z" fill="#007af6"/><path d="m304 184v-24l8 24z" fill="#007af6"/></g></svg>